<?xml version="1.0" encoding="UTF-8" standalone="no"?>
<svg
   version="1.1"
   width="133.94089"
   height="130.67006"
   viewBox="0 0 133.94088 130.67006"
   id="svg36"
   sodipodi:docname="logo-color.svg"
   xmlns:inkscape="http://www.inkscape.org/namespaces/inkscape"
   xmlns:sodipodi="http://sodipodi.sourceforge.net/DTD/sodipodi-0.dtd"
   xmlns="http://www.w3.org/2000/svg"
   xmlns:svg="http://www.w3.org/2000/svg">
  <defs
     id="defs40" />
  <sodipodi:namedview
     id="namedview38"
     pagecolor="#ffffff"
     bordercolor="#000000"
     borderopacity="0.25"
     inkscape:showpageshadow="2"
     inkscape:pageopacity="0.0"
     inkscape:pagecheckerboard="0"
     inkscape:deskcolor="#d1d1d1"
     showgrid="false" />
  <g
     transform="matrix(0.7,0,0,0.7,-0.14823,0.2787954)"
     id="g34">
    <svg
       viewBox="0 0 396 72"
       data-background-color="#ffffff"
       preserveAspectRatio="xMidYMid"
       height="181"
       width="1000"
       version="1.1"
       id="svg32">
      <g
         id="tight-bounds"
         transform="translate(0.24,0.01091877)">
        <svg
           viewBox="0 0 395.52 71.978162"
           height="71.978165"
           width="395.51999"
           version="1.1"
           id="svg27">
          <g
             id="g23">
            <svg
               viewBox="0 0 395.52 71.978162"
               height="71.978165"
               width="395.51999"
               version="1.1"
               id="svg21">
              <g
                 id="g17">
                <svg
                   viewBox="0 0 395.52 71.978162"
                   height="71.978165"
                   width="395.51999"
                   version="1.1"
                   id="svg15">
                  <g
                     id="textblocktransform">
                    <svg
                       viewBox="0 0 395.52 71.978162"
                       height="71.978165"
                       width="395.51999"
                       id="textblock"
                       version="1.1">
                      <g
                         id="g11">
                        <svg
                           viewBox="0 0 395.52 71.978162"
                           height="71.978165"
                           width="395.51999"
                           version="1.1"
                           id="svg9">
                          <g
                             id="g7">
                            <svg
                               width="395.51999"
                               viewBox="1.37 -42.189999 241.46001 43.949997"
                               height="71.978165"
                               data-palette-color="#0080ff"
                               version="1.1"
                               id="svg5">
                              <path
                                 d="m 16.5,-27.05 q -2.83,2.83 -2.83,6.84 0,4 2.83,6.83 2.84,2.83 6.84,2.83 4,0 6.84,-2.83 2.83,-2.83 2.83,-6.83 0,-4.01 -2.83,-6.84 -2.84,-2.83 -6.84,-2.83 -4,0 -6.84,2.83 z m -3.68,11.27 q -0.91,-2.12 -0.91,-4.43 0,-2.32 0.91,-4.44 0.9,-2.11 2.44,-3.65 1.54,-1.53 3.65,-2.44 2.11,-0.9 4.43,-0.9 2.32,0 4.43,0.9 2.11,0.91 3.65,2.44 1.54,1.54 2.44,3.65 0.91,2.12 0.91,4.44 0,2.31 -0.91,4.43 -0.9,2.11 -2.44,3.65 -1.54,1.53 -3.65,2.44 -2.11,0.9 -4.43,0.9 -2.32,0 -4.43,-0.9 -2.11,-0.91 -3.65,-2.44 -1.54,-1.54 -2.44,-3.65 z m -0.89,-11.05 q -1.77,3.03 -1.77,6.62 0,3.58 1.77,6.61 1.77,3.03 4.79,4.8 3.03,1.77 6.62,1.77 3.59,0 6.62,-1.77 3.02,-1.77 4.79,-4.8 1.77,-3.03 1.77,-6.61 0,-3.59 -1.77,-6.62 -1.77,-3.03 -4.79,-4.8 -3.03,-1.77 -6.62,-1.77 -3.59,0 -6.62,1.77 -3.02,1.77 -4.79,4.8 z m -1.53,14.11 q -2,-3.44 -2,-7.49 0,-4.06 2,-7.5 2,-3.44 5.44,-5.44 3.45,-2.01 7.5,-2.01 4.05,0 7.49,2.01 3.45,2 5.45,5.44 2,3.44 2,7.5 0,4.05 -2,7.49 -2,3.44 -5.45,5.44 -3.44,2.01 -7.49,2.01 -4.05,0 -7.5,-2.01 -3.44,-2 -5.44,-5.44 z M 7.96,-26.71 q -1.32,3.1 -1.32,6.5 0,3.39 1.32,6.49 1.32,3.1 3.55,5.33 2.24,2.24 5.34,3.56 3.1,1.31 6.49,1.31 3.39,0 6.49,-1.31 3.1,-1.32 5.34,-3.56 2.23,-2.23 3.55,-5.33 1.32,-3.1 1.32,-6.49 0,-3.4 -1.32,-6.5 -1.32,-3.1 -3.55,-5.33 -2.24,-2.24 -5.34,-3.56 -3.1,-1.31 -6.49,-1.31 -3.39,0 -6.49,1.31 -3.1,1.32 -5.34,3.56 -2.23,2.23 -3.55,5.33 z m -0.6,15.75 q -2.48,-4.25 -2.48,-9.25 0,-5.01 2.48,-9.26 2.48,-4.25 6.73,-6.72 4.24,-2.48 9.25,-2.48 5,0 9.25,2.48 4.25,2.47 6.73,6.72 2.48,4.25 2.48,9.26 0,5 -2.48,9.25 -2.48,4.25 -6.73,6.72 -4.25,2.48 -9.25,2.48 -5.01,0 -9.25,-2.48 -4.25,-2.47 -6.73,-6.72 z m -2.64,-17.1 q -1.59,3.74 -1.59,7.85 0,4.1 1.59,7.84 1.6,3.75 4.31,6.46 2.71,2.71 6.46,4.31 3.75,1.6 7.85,1.6 4.1,0 7.85,-1.6 3.75,-1.6 6.46,-4.31 2.71,-2.71 4.31,-6.46 1.59,-3.74 1.59,-7.84 0,-4.11 -1.59,-7.85 -1.6,-3.75 -4.31,-6.46 -2.71,-2.71 -6.46,-4.31 -3.75,-1.6 -7.85,-1.6 -4.1,0 -7.85,1.6 -3.75,1.6 -6.46,4.31 -2.71,2.71 -4.31,6.46 z m -1.61,16.38 q -1.74,-4.07 -1.74,-8.53 0,-4.47 1.74,-8.54 1.75,-4.06 4.69,-7 2.94,-2.95 7.01,-4.69 4.06,-1.75 8.53,-1.75 4.47,0 8.53,1.75 4.07,1.74 7.01,4.69 2.94,2.94 4.69,7 1.74,4.07 1.74,8.54 0,4.46 -1.74,8.53 -1.75,4.06 -4.69,7 -2.94,2.95 -7.01,4.69 -4.06,1.75 -8.53,1.75 -4.47,0 -8.53,-1.75 -4.07,-1.74 -7.01,-4.69 -2.94,-2.94 -4.69,-7 z m 76.36,-14.93 v 0 l -1.45,0.95 q -1.31,-1.95 -3.43,-3.09 -2.11,-1.13 -4.57,-1.13 v 0 q -4.01,0 -6.84,2.83 -2.83,2.83 -2.83,6.84 0,4 2.83,6.83 2.83,2.83 6.84,2.83 v 0 q 2.46,0 4.57,-1.14 2.12,-1.15 3.43,-3.1 v 0 l 1.42,1.02 q -1.56,2.3 -4.05,3.64 -2.49,1.34 -5.37,1.34 v 0 q -2.32,0 -4.43,-0.9 -2.12,-0.91 -3.65,-2.44 -1.54,-1.54 -2.45,-3.65 -0.9,-2.12 -0.9,-4.43 0,-2.32 0.9,-4.44 0.91,-2.11 2.45,-3.65 1.53,-1.53 3.65,-2.44 2.11,-0.9 4.43,-0.9 v 0 q 2.9,0 5.39,1.35 2.49,1.36 4.06,3.68 z m 2.9,-2 v 0 l -1.46,0.95 q -1.81,-2.64 -4.68,-4.19 -2.87,-1.55 -6.21,-1.55 v 0 q -3.59,0 -6.62,1.77 -3.03,1.77 -4.8,4.8 -1.77,3.03 -1.77,6.62 0,3.58 1.77,6.61 1.77,3.03 4.8,4.8 3.03,1.77 6.62,1.77 v 0 q 3.34,0 6.22,-1.56 2.88,-1.57 4.69,-4.23 v 0 l 1.44,1 q -2.05,3.03 -5.31,4.79 -3.26,1.76 -7.04,1.76 v 0 q -4.06,0 -7.5,-2.01 -3.44,-2 -5.44,-5.44 -2,-3.44 -2,-7.49 0,-4.06 2,-7.5 2,-3.44 5.44,-5.44 3.44,-2.01 7.5,-2.01 v 0 q 3.78,0 7.04,1.76 3.26,1.76 5.31,4.79 z m 2.93,-1.96 v 0 l -1.46,0.96 q -2.3,-3.37 -5.95,-5.34 -3.65,-1.96 -7.87,-1.96 v 0 q -3.4,0 -6.5,1.31 -3.1,1.32 -5.33,3.56 -2.24,2.23 -3.55,5.33 -1.32,3.1 -1.32,6.5 0,3.39 1.32,6.49 1.31,3.1 3.55,5.33 2.23,2.24 5.33,3.56 3.1,1.31 6.5,1.31 v 0 q 4.25,0 7.88,-1.97 3.64,-1.98 5.94,-5.35 v 0 l 1.41,1.05 q -2.54,3.71 -6.55,5.87 -4.02,2.16 -8.68,2.16 v 0 q -5.01,0 -9.26,-2.48 -4.24,-2.47 -6.72,-6.72 -2.48,-4.25 -2.48,-9.25 0,-5.01 2.48,-9.26 2.48,-4.25 6.72,-6.72 4.25,-2.48 9.26,-2.48 v 0 q 4.68,0 8.71,2.18 4.03,2.19 6.57,5.92 z m 2.88,-2 v 0 l -1.46,0.95 q -2.79,-4.07 -7.19,-6.44 -4.41,-2.37 -9.51,-2.37 v 0 q -4.1,0 -7.85,1.6 -3.75,1.6 -6.46,4.31 -2.71,2.71 -4.31,6.46 -1.6,3.74 -1.6,7.85 0,4.1 1.6,7.84 1.6,3.75 4.31,6.46 2.71,2.71 6.46,4.31 3.75,1.6 7.85,1.6 v 0 q 5.1,0 9.52,-2.39 4.42,-2.4 7.2,-6.47 v 0 l 1.42,1.07 q -3.03,4.4 -7.82,6.97 -4.78,2.58 -10.32,2.58 v 0 q -4.47,0 -8.54,-1.75 -4.06,-1.74 -7,-4.69 -2.94,-2.94 -4.69,-7 -1.75,-4.07 -1.75,-8.53 0,-4.47 1.75,-8.54 1.75,-4.06 4.69,-7 2.94,-2.95 7,-4.69 4.07,-1.75 8.54,-1.75 v 0 q 5.56,0 10.35,2.59 4.78,2.59 7.81,7.03 z m 28.95,-6.1 H 90.77 v -1.76 h 26.36 z m 0,3.51 H 90.77 v -1.75 h 26.36 z m -19.33,3.52 h -7.03 v -1.76 h 26.36 v 1.76 H 110.1 V 0 h -1.76 v -31.64 h -1.75 V 0 h -1.76 v -31.64 h -1.76 V 0 h -1.76 V -31.64 H 99.56 V 0 H 97.8 Z m 48.19,19.77 h -7.42 l 0.7,-1.75 h 6.01 z m 1.41,3.52 h -10.2 l 0.68,-1.76 h 8.77 z m 1.37,3.52 h -12.94 l 0.69,-1.76 h 11.52 z M 136.59,-38.06 121.55,0 h -1.9 l 15.99,-40.43 h 1.9 L 153.51,0 h -1.88 z M 123.43,0 l 13.38,-33.89 1,2.25 L 125.31,0 Z m 3.78,0 11.55,-29.25 0.93,2.42 L 129.12,0 Z m 3.79,0 9.62,-24.41 0.93,2.46 L 132.88,0 Z M 148.87,-40.43 164.86,0 h -1.9 l -15.97,-40.43 z m -5.66,0 h 1.88 L 161.08,0 h -1.88 z m -3.79,0 h 1.88 L 157.29,0 h -1.9 z m 57.23,0 v 20.97 l -1.76,-2.9 v -18.07 z m 3.51,0 v 26.73 l -1.76,-2.95 v -23.78 z m 3.52,0 v 32.57 l -1.76,-2.98 V -40.43 Z M 178.48,0 v -20.97 l 1.76,2.9 V 0 Z m -3.51,0 v -26.73 l 1.75,2.95 V 0 Z m -3.52,0 v -32.57 l 1.76,2.98 V 0 Z m 25.46,0 -24.85,-40.43 h 2.05 L 198.96,0 Z m 4.11,0 -24.81,-40.43 h 2.08 L 203.12,0 Z m 4.1,0 -24.78,-40.43 h 2.05 l 23.04,37.57 v -37.57 h 1.76 V 0 q 0,0 -2.07,0 z m -12.33,0 -23.1,-37.57 V 0 h -1.76 v -40.43 q 0,0 2.1,0 v 0 L 194.81,0 Z m 27.83,-40.43 V 0 h -1.76 v -40.43 z m -3.52,0 V 0 h -1.76 v -40.43 z m -3.51,0 V 0 h -1.76 v -40.43 z m 10.54,24.61 v 7.03 h 18.7 v 1.76 h -18.7 v 1.76 h 18.7 v 1.75 h -18.7 v 1.76 h 18.7 V 0 h -20.45 v -40.43 h 20.45 v 1.76 h -18.7 v 1.76 h 18.7 v 1.75 h -18.7 v 1.76 h 18.7 v 1.76 h -18.7 v 7.03 h 9.6 v 1.76 h -9.6 v 1.76 h 9.6 v 1.75 h -9.6 v 1.76 h 9.6 v 1.76 z"
                                 opacity="1"
                                 fill="#0080ff"
                                 class="wordmark-text-0"
                                 data-fill-palette-color="primary"
                                 id="text-0" />
                            </svg>
                          </g>
                        </svg>
                      </g>
                    </svg>
                  </g>
                </svg>
              </g>
              <g
                 id="g19" />
            </svg>
          </g>
          <defs
             id="defs25" />
        </svg>
        <rect
           width="395.51999"
           height="71.978165"
           fill="none"
           stroke="none"
           visibility="hidden"
           id="rect29"
           x="0"
           y="0" />
      </g>
    </svg>
  </g>
  <path
     style="fill:none"
     d="m -2.68524,3.2007654 c 1.78436,7.5968796 4.42288,14.4021496 7.20292,21.8083296 0.91573,2.43956 1.54495,5.00356 2.72382,7.32741 1.20842,2.38209 2.99114,4.42811 4.39306,6.70171 7.17076,11.62935 14.25889,25.42704 26.27078,32.97108 4.43993,2.78848 9.47542,4.49204 14.18068,6.80485 8.05929,3.96143 1.02666,0.69279 8.27873,4.67253 7.6628,4.20514 15.73317,7.71515 23.42608,11.83628 4.35213,2.33145 7.17829,6.520235 10.98449,9.469785 16.95465,13.13869 -7.84845,-7.957445 7.39321,5.81194 2.31787,2.09397 12.32829,7.49118 16.09153,5.45981 1.16879,-0.63091 3.01426,-2.15121 4.45094,-2.1539 0.29567,-5.5e-4 2.18308,5.82218 4.44815,7.70971 2.35457,1.96213 7.28954,1.49811 4.17918,1.49811"
     id="path556" />
  <path
     style="fill:none"
     d="M 50.0932,184.32064 -18.48514,-6.2681146"
     id="path558" />
  <path
     style="fill:none"
     d="M -32.09904,23.351605 -9.20719,-7.3649946 c 5.0215,19.9357296 2.49735,40.4528696 2.91361,60.8040196 0.1431,6.99628 -0.17918,14.07782 1.04855,20.96702 1.93369,10.85051 5.79832,21.26985 8.38772,31.982825 1.98259,8.20246 1.29242,25.9825 7.87051,30.61776 3.03352,2.13758 8.01958,2.65991 11.42668,3.88224 7.25788,2.60384 13.28909,7.881 20.82721,9.94462 7.11611,1.9481 20.32506,3.04573 27.36131,2.02927 4.14443,-0.59871 7.89955,-2.81342 11.95199,-3.86816 7.25514,-1.88832 14.17491,-2.76637 21.30976,-4.85477 3.03374,-0.88799 8.89498,-3.69428 12.39958,-2.66165 0.23056,0.0679 -0.19649,0.58264 0,0.72108 3.14947,2.21893 0.94705,-0.13018 3.58475,0.74905 0.67103,0.22368 0.89026,1.16882 1.5302,1.47013 0.43572,0.20516 1.0203,-0.22747 1.4448,0 0.80648,0.43215 1.4009,1.22844 2.24716,1.57629 0.4895,0.2012 1.4902,-0.52018 1.58772,0 0.0994,0.52998 -0.93144,0.57857 -1.45532,0.70626 -4.15739,1.01334 1.25676,-1.95399 2.05332,-2.14969 1.11213,-0.27324 3.82491,-1.15498 4.49002,-1.77452"
     id="path560" />
  <path
     style="fill:none"
     d="m -14.194762,-4.6387021 c -0.615345,12.9289505 3.362229,25.5356011 6.240683,37.9612631 1.779583,7.682074 3.330564,15.418116 5.243194,23.06815 4.872417,19.488435 10.266864,40.444864 19.768592,58.341809 2.036809,3.83642 4.827686,7.22221 7.242788,10.83247 1.905536,2.84853 3.372112,6.04656 5.719125,8.5439 7.725713,8.22054 24.247737,12.03802 34.760503,12.9348 12.251467,1.04509 5.741287,-0.71841 15.810457,0 9.10325,0.64949 3.05347,0.93725 11.15173,1.79628 3.94845,0.41884 7.91308,0.68611 11.87829,0.89289 1.74542,0.091 3.49559,0 5.24338,0 0.74905,0 1.53654,0.23687 2.24716,0 0.12172,-0.0406 -0.36735,-1.66725 0.72409,-0.74905 0.15538,0.13071 -0.0827,0.4237 0,0.60915 0.56143,1.25908 0.84198,0.46887 2.09026,0.71851 1.40237,0.28047 3.25531,1.80068 4.22453,0.74906 0.2789,-0.30261 -0.25028,-0.90791 0,-1.23459 0.34582,-0.45137 9.19704,-3.68199 10.04772,-3.68199 0.39443,0 -1.00256,-0.23411 -1.00256,-0.62854"
     id="path564" />
  <path
     style="fill:none"
     d="M 0,0 C 21.800843,30.720973 30.994646,46.404803 59.318349,73.624343 73.8072,87.548361 89.95353,99.640115 105.45876,112.42263 c 3.66446,3.02098 7.82056,5.43298 11.35715,8.60269 1.55246,1.39141 -2.76264,5.69312 3.16268,7.70358 2.51312,0.85271 4.28673,-1.3668 6.71652,-0.74905 0.81253,0.20658 5.49923,2.6419 3.67902,2.6419 -0.14231,0 0.33509,0.10871 0.42692,0 0.41144,-0.48705 0.20228,-0.62286 1.2846,-0.91684 0.59842,-0.16255 3.07845,0 1.10703,0"
     id="path568" />
</svg>
